<svg width="97" height="33" viewBox="0 0 97 33" fill="none" xmlns="http://www.w3.org/2000/svg">
<path fill-rule="evenodd" clip-rule="evenodd" d="M19.4982 16.0795H15.2589L16.6777 14.6997H24.239L23.1256 15.7907C22.9189 15.9764 22.7807 16.1878 22.7807 16.496V22.5235C19.2521 23.4855 16.1973 24 12.7569 24C5.66142 24 0.0151367 19.4245 0.0151367 11.8291C0.0151367 6.49306 4.24919 0 13.5123 0C17.7318 0 20.684 1.2844 22.7227 2.63586L19.4994 5.79399V3.8906C17.7804 2.36376 15.859 1.26764 12.5567 1.26764C7.3382 1.26764 3.5977 5.23419 3.5977 10.889C3.5977 16.6547 7.73304 22.5583 14.7692 22.5583C16.5053 22.5583 18.1755 22.3299 19.4982 21.9135V16.0795ZM33.7397 8C28.4968 8 25.2483 11.6897 25.2483 15.6061C25.2483 18.9865 27.8654 23 33.1677 23C38.2682 23 41.3976 19.3031 41.3976 15.3181C41.3976 11.6062 38.3394 8.00137 33.7397 8.00137V8ZM32.8699 9.0757C36.5663 9.0757 38.2124 13.7138 38.2124 17.0219C38.2124 21.9417 34.3802 22.039 33.9221 22.039C32.1684 22.039 30.9428 21.0182 30.0253 19.6794C29.2177 18.4455 28.4282 16.1531 28.4282 13.9132C28.4282 11.6821 29.1865 10.5927 30.3799 9.79117C31.3558 9.19038 32.2695 9.0757 32.8686 9.0757H32.8699ZM68.0599 8C63.6351 8 61.2415 10.8954 61.2415 14.1281C61.2415 16.5892 62.9473 19.3657 66.4665 19.3657H67.3568C67.3568 19.3657 67.1143 19.9745 67.1131 20.5626C67.1131 21.4301 67.4145 21.9173 68.0547 22.667C61.9992 23.0483 59.5655 25.5727 59.5655 28.2858C59.5655 30.6617 61.7667 33 66.3926 33C71.869 33 74.7054 29.8576 74.7054 26.7736C74.7054 24.5995 73.6574 23.4077 71.0036 21.3525C70.2232 20.7256 70.0719 20.3263 70.0719 19.8571C70.0719 19.1974 70.4466 18.7567 70.5953 18.5819L70.6034 18.5723C70.7691 18.3917 71.0148 18.1941 71.2095 18.0376C71.3101 17.9566 71.3972 17.8866 71.4526 17.8355C72.3443 17.0548 73.6036 15.8994 73.6036 13.5933C73.6036 12.0111 72.967 10.6501 71.5164 9.37557H73.2872L74.6179 8.00026H68.0599V8ZM66.8393 9.0289C67.6422 9.0289 68.3124 9.32231 69.0203 9.93112C69.8055 10.6627 71.0602 12.6287 71.0602 15.0614C71.0602 17.6866 69.0867 18.4053 68.0187 18.4053C67.4959 18.4053 66.8695 18.2541 66.3391 17.8792C65.161 17.0896 63.9916 14.9877 63.9916 12.4866C63.9916 10.2297 65.2922 9.0289 66.8393 9.0289ZM69.1717 23.6921C69.1717 23.6921 68.929 23.6635 68.5914 23.6635C64.0478 23.7293 62.392 25.5004 62.392 27.5583C62.392 30.0426 64.8083 31.5639 67.9698 31.5639C70.8499 31.5639 72.6283 30.0103 72.6283 28.0287C72.6283 26.5874 71.8205 25.7782 70.5249 24.7196C69.9684 24.2802 69.1717 23.6921 69.1717 23.6921ZM81.8011 23H75.3749L76.5525 21.8458C76.7456 21.6494 76.8356 21.4581 76.8356 21.177V1.40269H74.7054L76.1317 0H81.6119L80.4528 1.13985C80.3232 1.26229 80.1459 1.45487 80.1459 1.83092V20.9208C80.1459 21.3294 80.4409 21.751 80.937 21.8108L82.7801 22.0372L81.8011 23ZM82.7801 15.2021C82.7801 10.5765 86.6382 8 90.2699 8H90.2713C94.1239 8 95.8005 9.98699 96.3951 11.9602L86.101 15.8329C87.084 19.4302 89.8935 21.3872 92.8075 21.3872C94.341 21.3872 95.4953 20.9509 96.9107 20.2866C96.1609 21.2202 95.1337 21.9631 94.0664 22.4205C93.0714 22.8456 92.0095 23 90.7199 23C85.5481 23 82.7801 19.0224 82.7801 15.2021ZM92.9548 11.7182C92.9548 10.5503 91.5462 9.05825 89.5975 9.05825C88.3094 9.05825 85.6981 9.95695 85.6981 13.3187C85.6981 14.1202 85.8693 14.8618 85.8693 14.8618L92.1968 12.4798C92.7005 12.2953 92.9548 12.0959 92.9548 11.7182ZM51.9076 8C46.6647 8 43.4163 11.6897 43.4163 15.6061C43.4163 18.9865 46.0333 23 51.3356 23C56.4361 23 59.5655 19.3031 59.5655 15.3181C59.5655 11.6062 56.5073 8.00137 51.9076 8.00137V8ZM51.0378 9.0757C54.7342 9.0757 56.3803 13.7138 56.3803 17.0219C56.3803 21.9417 52.5481 22.039 52.09 22.039C50.3363 22.039 49.1107 21.0182 48.1932 19.6794C47.3856 18.4455 46.5961 16.1531 46.5961 13.9132C46.5961 11.6821 47.3544 10.5927 48.5478 9.79117C49.5237 9.19038 50.4374 9.0757 51.0365 9.0757H51.0378Z" fill="#36536B"/>
</svg>
