<svg width="142" height="27" viewBox="0 0 142 27" fill="none" xmlns="http://www.w3.org/2000/svg">
<path fill-rule="evenodd" clip-rule="evenodd" d="M40.5192 0H23.7584L22.997 2.02119C29.6429 2.33583 34.9255 7.32367 34.9255 13.4299C34.9255 19.1057 30.3612 23.8147 24.3808 24.7038L23.6632 26.8728H40.5192C41.4636 26.8764 42.3706 26.5007 43.0398 25.8285C43.709 25.1564 44.0853 24.2431 44.0857 23.2905V3.57003C44.0857 1.58084 42.4883 0 40.5192 0ZM9.8322 13.4307C9.8322 18.4277 13.3821 22.838 18.3202 24.4409L17.4584 26.8728H4.25206C2.28677 26.8728 0.693848 25.2477 0.693848 23.2639V3.59746C0.692596 1.61351 2.28517 0.003705 4.25206 0.000761851H17.8859L17.0309 2.40059C12.9153 4.60463 9.8322 9.03784 9.8322 13.4307ZM133.475 16.3912H125.687V26.981H133.427C136.23 26.981 136.419 24.2497 136.419 22.7641V19.6497C136.419 17.7808 135.468 16.3912 133.475 16.3912ZM133.996 23.0521V20.0329C134.046 19.3632 133.57 18.596 132.857 18.596H128.107V24.7769H132.667C133.521 24.7769 133.996 23.9617 133.996 23.0521ZM122.343 22.8647C122.915 22.3832 123.296 21.6625 123.296 19.7388C123.296 17.5751 121.819 16.3729 120.105 16.3729H113.103V26.9992H115.485V23.8734H119.58C120.533 23.8734 121.01 24.6428 121.01 25.0756V26.9985H123.296V24.7868C123.296 24.1621 123.105 23.2494 122.343 22.8647ZM115.484 21.6625H119.866C120.771 21.6625 121.009 20.5563 121.009 20.0283C121.009 19.4981 120.771 18.5854 119.579 18.5854H115.484V21.6625ZM106.484 16.3935H103.351L99.1258 25.4938V26.9787H101.025L101.879 25.0626H107.946L108.811 26.9787H111.281L106.484 16.3935ZM104.917 18.3576L102.876 22.8601H106.95L104.917 18.3576ZM88.1121 26.9901V16.3828H90.5388V20.3666H91.5849L95.7224 16.3828H98.9566L93.8667 21.3745L98.0994 25.5982V26.9901H96.2919L91.7752 22.5736H90.5388V26.9901H88.1121ZM75.3679 24.4851V18.887C75.3679 17.6917 76.6481 16.3996 77.7864 16.3996H83.621C85.1392 16.4468 86.0388 18.0269 86.0388 18.9358V19.8439H83.621C83.572 19.3655 83.146 18.6486 82.7668 18.6486H78.5923C77.6444 18.6486 77.7871 19.6055 77.7871 19.6055V23.8155C77.7871 24.5811 78.2607 24.7723 78.5454 24.7723H82.6716C83.5727 24.7723 83.6686 24.0067 83.6686 23.5282H86.0395V24.4851C86.0395 26.0644 84.9496 26.9733 83.6218 26.9733H77.8347C76.0318 26.9733 75.3679 25.5852 75.3679 24.4851ZM69.4932 16.3729H66.3496L61.4432 27H64.015L64.873 25.0771H70.9592L71.8271 27H74.3044L69.4932 16.3729ZM67.9207 18.3438L65.8731 22.8647H69.9215L67.9207 18.3438ZM58.7234 16.3889H51.0737V26.984H53.4967V24.0113H58.7226C60.1479 24.0113 61.7635 23.1968 61.7635 20.2241C61.7642 17.2041 60.0059 16.3889 58.7234 16.3889ZM53.4967 21.8065H58.1532C59.1985 21.8065 59.1985 20.7041 59.1985 20.2249C59.1985 19.7457 59.1985 18.5945 58.0104 18.5945H53.4967V21.8065ZM51.0737 0.173702V10.7688H53.4967V6.54963H59.8156V10.7688H62.2386V0.173702H59.8156V4.34484H53.4967V0.173702H51.0737ZM66.3942 0.166845H74.4797V2.37698H67.1548V4.34484H73.2432V6.55268H67.1548V8.56854H74.4797V10.7764H66.2515C65.2998 10.7764 64.7295 10.0084 64.7295 9.38448V1.7515C64.7295 0.790801 65.2998 0.166845 66.3942 0.166845ZM94.0026 0.177511V9.18411C94.0026 9.99853 94.6205 10.765 95.7126 10.765H102.837V8.56092H96.4256V0.177511H94.0026ZM121.593 2.37469V10.7764H119.168V2.37469H115.671V0.165322H125.138V2.37469H121.593ZM132.812 10.7832V2.37012H136.36V0.158465H126.883V2.37012H130.384V10.7832H132.812ZM105.813 0.171416H113.893H113.893V2.37698H106.574V4.34407H112.658V6.5504H106.574V8.56473H113.893V10.771H105.67C104.719 10.771 104.149 10.0039 104.149 9.37991V1.75454C104.149 0.794611 104.719 0.171416 105.813 0.171416ZM87.3832 10.787C86.6679 10.787 85.9776 9.70522 85.8341 9.17573L84.0478 3.61955L81.7124 10.7878H80.2358C79.5205 10.7878 78.9004 9.6816 78.7577 9.15288L75.8513 0.156179H78.2811L80.5221 7.42043L82.9043 0.204176H85.1906L87.5728 7.42043L89.8122 0.156179H92.2435L88.8122 10.7878H87.3832V10.787ZM139.642 0.0937077C140.269 0.0836353 140.872 0.334067 141.311 0.78623C141.769 1.24791 142 1.80711 142 2.46306C142.009 3.09661 141.76 3.70627 141.311 4.14904C140.851 4.61453 140.294 4.84766 139.642 4.84766C138.989 4.84766 138.434 4.61529 137.977 4.14904C137.521 3.68507 137.294 3.12359 137.294 2.46306C137.285 1.8323 137.534 1.22567 137.983 0.78623C138.441 0.32531 138.993 0.0937077 139.642 0.0937077ZM141.076 3.91896C140.702 4.31179 140.182 4.52984 139.642 4.52082C139.102 4.5304 138.583 4.31226 138.209 3.91896C137.824 3.53485 137.612 3.0084 137.622 2.4623C137.622 1.89701 137.818 1.41476 138.212 1.01555C138.607 0.614814 139.083 0.413685 139.643 0.413685C140.203 0.413685 140.682 0.614814 141.077 1.01555C141.47 1.41476 141.666 1.89701 141.666 2.4623C141.666 3.03217 141.47 3.51747 141.076 3.91896ZM19.1909 0L12.8058 18.0009V18.0016H15.5024L18.6242 9.33768H19.4754C20.0421 9.33768 20.0421 9.75415 19.948 10.2178L17.1574 18.0016H19.948C19.948 18.0016 22.3601 11.423 22.7861 10.0328C23.2113 8.64259 22.3601 7.9475 20.7044 7.9475H19.0961L21.9342 0H19.1909ZM25.3811 7.90179H29.7951C31.1235 7.90179 32.5008 8.59984 31.7888 10.5075L29.7477 16.1839C29.3684 17.2542 29.0358 17.9987 27.0421 17.9987H24.5465L21.7264 26H19.0208L25.3811 7.90179ZM29.0358 9.99592C29.0358 9.99592 27.0421 15.5323 26.9947 15.8117C26.9473 16.0911 26.7094 16.6026 26.2353 16.6026H25.0379L27.6118 9.29788H28.7987C29.2254 9.29788 29.178 9.62368 29.0358 9.99592Z" fill="#36536B"/>
</svg>
