<svg width="148" height="31" viewBox="0 0 148 31" fill="none" xmlns="http://www.w3.org/2000/svg">
<path fill-rule="evenodd" clip-rule="evenodd" d="M15.9217 15H0.781738V0H15.9217V15ZM147.134 14.0611V11.5398H143.962V7.62017L143.855 7.65262L140.875 8.55241L140.816 8.57002V11.54H136.112V9.88545C136.112 9.11505 136.287 8.5255 136.631 8.13233C136.973 7.74388 137.461 7.54639 138.085 7.54639C138.533 7.54639 138.996 7.65054 139.463 7.85593L139.58 7.90753V5.25227L139.525 5.2323C139.09 5.0778 138.497 5 137.763 5C136.838 5 135.997 5.19874 135.264 5.5926C134.53 5.98702 133.953 6.55008 133.548 7.26597C133.145 7.98103 132.941 8.8069 132.941 9.72083V11.5398H130.732V14.0611H132.941V24.6828H136.112V14.0611H140.816V20.811C140.816 23.591 142.145 24.9997 144.765 24.9997C145.196 24.9997 145.649 24.9499 146.112 24.8524C146.583 24.7523 146.904 24.6523 147.093 24.5455L147.134 24.5211V21.9765L147.005 22.0607C146.833 22.1739 146.619 22.2664 146.368 22.3352C146.115 22.4052 145.904 22.4403 145.741 22.4403C145.127 22.4403 144.673 22.2771 144.391 21.9549C144.106 21.6298 143.962 21.0614 143.962 20.2661V14.0611H147.134ZM123.649 22.4407C122.498 22.4407 121.591 22.064 120.951 21.3221C120.308 20.5764 119.982 19.5132 119.982 18.1624C119.982 16.7688 120.308 15.678 120.951 14.9191C121.591 14.1653 122.49 13.7826 123.624 13.7826C124.723 13.7826 125.599 14.1481 126.226 14.8694C126.856 15.5944 127.176 16.6764 127.176 18.0863C127.176 19.5135 126.875 20.6098 126.282 21.3432C125.693 22.071 124.807 22.4407 123.649 22.4407ZM118.606 13.1107C119.85 11.8582 121.594 11.2232 123.79 11.2232C125.859 11.2232 127.5 11.8306 128.667 13.029C129.833 14.2268 130.424 15.8944 130.424 17.9844C130.424 20.1003 129.794 21.8173 128.551 23.0857C127.308 24.3555 125.598 24.9994 123.469 24.9994C121.426 24.9994 119.775 24.3884 118.562 23.1821C117.348 21.9763 116.733 20.3211 116.733 18.2633C116.733 16.0967 117.363 14.3633 118.606 13.1107ZM111.62 11.2232C110.126 11.2232 108.89 11.6003 107.946 12.3438C106.997 13.0917 106.515 14.0726 106.515 15.2596C106.515 15.8766 106.619 16.4247 106.823 16.8896C107.029 17.356 107.348 17.7666 107.771 18.1113C108.191 18.4531 108.84 18.8112 109.699 19.1755C110.421 19.4688 110.96 19.7169 111.302 19.9125C111.637 20.1042 111.874 20.2968 112.008 20.4844C112.138 20.668 112.204 20.9193 112.204 21.2294C112.204 22.1124 111.534 22.5421 110.155 22.5421C109.644 22.5421 109.061 22.4367 108.422 22.2289C107.787 22.0243 107.188 21.7247 106.646 21.3405L106.515 21.2473V24.2605L106.563 24.2827C107.012 24.4871 107.577 24.6595 108.244 24.7952C108.91 24.9309 109.514 25 110.04 25C111.661 25 112.966 24.6211 113.919 23.8732C114.877 23.1201 115.363 22.1161 115.363 20.888C115.363 20.0021 115.102 19.2424 114.586 18.6297C114.074 18.0219 113.186 17.464 111.946 16.9708C110.959 16.5798 110.326 16.2551 110.065 16.0059C109.814 15.7651 109.686 15.4247 109.686 14.9935C109.686 14.6113 109.844 14.3051 110.167 14.0571C110.494 13.8079 110.948 13.6811 111.517 13.6811C112.046 13.6811 112.586 13.7635 113.124 13.9249C113.661 14.0863 114.133 14.3026 114.527 14.567L114.656 14.6544V11.7961L114.607 11.775C114.243 11.6212 113.764 11.4896 113.182 11.3828C112.603 11.2767 112.077 11.2232 111.62 11.2232ZM95.5489 21.3221C96.1883 22.064 97.0962 22.4407 98.247 22.4407C99.4053 22.4407 100.291 22.071 100.88 21.3432C101.473 20.6098 101.773 19.5135 101.773 18.0863C101.773 16.6764 101.454 15.5944 100.823 14.8694C100.196 14.1481 99.3208 13.7826 98.2216 13.7826C97.0878 13.7826 96.189 14.1653 95.5496 14.9191C94.9057 15.678 94.5798 16.7688 94.5798 18.1624C94.5798 19.5135 94.9053 20.5764 95.5489 21.3221ZM98.3884 11.2232C96.1917 11.2232 94.4473 11.8582 93.2042 13.1107C91.9613 14.3633 91.3308 16.0967 91.3308 18.2633C91.3308 20.3219 91.9463 21.9763 93.1597 23.1821C94.3731 24.3884 96.0242 24.9994 98.0671 24.9994C100.196 24.9994 101.906 24.3555 103.149 23.0857C104.392 21.8173 105.022 20.1003 105.022 17.9844C105.022 15.8944 104.431 14.2268 103.264 13.029C102.097 11.8306 100.457 11.2232 98.3884 11.2232ZM86.5166 11.5398V13.8159H86.5499C86.8427 13.0773 87.2255 12.485 87.7552 12.0529C88.3586 11.5615 89.0631 11.3118 89.8504 11.3118C90.3726 11.3118 90.7854 11.3735 91.0771 11.4959L91.1278 11.5173V14.6341L90.9962 14.54C90.8511 14.4368 90.6052 14.3388 90.2657 14.2485C89.9226 14.1576 89.6059 14.1117 89.3237 14.1117C88.4911 14.1117 87.8093 14.4669 87.2976 15.1678C86.7793 15.8772 86.5166 16.8164 86.5166 17.9595V24.6826H83.3839V11.5398H86.5166ZM77.7736 11.2232C76.3363 11.2232 75.0544 11.5273 73.964 12.1269C72.8713 12.7278 72.0263 13.5857 71.4514 14.6766C70.879 15.7648 70.5884 17.036 70.5884 18.4537C70.5884 19.6954 70.8701 20.835 71.4271 21.8394C71.9843 22.8454 72.773 23.6324 73.7713 24.1783C74.7683 24.7235 75.9205 24.9999 77.1963 24.9999C78.6851 24.9999 79.9562 24.7061 80.9754 24.1268L81.0165 24.1035V21.2712L80.8849 21.366C80.4232 21.6979 79.9073 21.9628 79.3522 22.1536C78.7985 22.3443 78.2937 22.4407 77.851 22.4407C76.6218 22.4407 75.6349 22.0611 74.9186 21.3128C74.2008 20.5635 73.8368 19.5113 73.8368 18.1873C73.8368 16.8549 74.2164 15.7757 74.9644 14.9793C75.7103 14.1854 76.6989 13.7826 77.9027 13.7826C78.9324 13.7826 79.9358 14.1267 80.8851 14.8063L81.0165 14.9004V11.9161L80.9741 11.8925C80.6169 11.6951 80.1296 11.5322 79.5248 11.4086C78.9225 11.2853 78.3333 11.2232 77.7736 11.2232ZM65.2979 11.54H68.4307V24.6826H65.2979V11.54ZM66.8964 5.94111C66.3808 5.94111 65.9311 6.11433 65.5616 6.45758C65.1906 6.80179 65.0024 7.23518 65.0024 7.74665C65.0024 8.25008 65.1883 8.67556 65.5558 9.01062C65.9209 9.34472 66.372 9.51405 66.8965 9.51405C67.4209 9.51405 67.8737 9.34472 68.2431 9.01118C68.615 8.67556 68.8036 8.25022 68.8036 7.74665C68.8036 7.25307 68.62 6.82412 68.2584 6.47145C67.8971 6.11946 67.4387 5.94111 66.8964 5.94111ZM59.0799 24.6826V10.5703H58.9767L53.3029 24.6826H51.0356L45.2718 10.5689H45.1687V24.6824H42.1642V6.34344H46.7694L52.2276 19.9652L57.852 6.34344H62.277V24.6826H59.0799ZM16.931 15H32.0709V0H16.931V15ZM15.9217 31H0.781738V16H15.9217V31ZM16.931 31H32.0709V16H16.931V31Z" fill="#36536B"/>
</svg>
