<svg width="139" height="26" viewBox="0 0 139 26" fill="none" xmlns="http://www.w3.org/2000/svg">
<path fill-rule="evenodd" clip-rule="evenodd" d="M15.3985 0V3.50139L16.0939 3.45799C25.033 3.15415 30.8716 10.7791 30.8716 10.7791C30.8716 10.7791 24.1782 18.9104 17.2095 18.9104C16.601 18.9104 16.007 18.8525 15.413 18.7513V20.9215C15.9056 20.9794 16.4126 21.0228 16.9052 21.0228C23.3958 21.0228 28.0899 17.7095 32.6392 13.803C32.9791 14.0772 33.794 14.5252 34.6446 14.9929C35.679 15.5616 36.7661 16.1593 37.1159 16.5086C32.7985 20.1258 22.7294 23.0339 17.0211 23.0339C16.4706 23.0339 15.949 23.005 15.4275 22.9471V26H40.086V0H15.3985ZM15.3985 7.75515V5.41237L15.413 5.41124V5.41034C15.6399 5.39618 15.8669 5.3823 16.0939 5.3823C22.5266 5.17974 26.7426 10.9093 26.7426 10.9093C26.7426 10.9093 22.1933 17.2176 17.3109 17.2176C16.6589 17.2176 16.0215 17.1163 15.413 16.9137V9.79521C17.7728 10.0813 18.3603 11.0727 19.6664 13.2768L19.6666 13.2771C19.7476 13.4139 19.8315 13.5554 19.9187 13.7017L23.2654 10.8948C23.2654 10.8948 20.817 7.69727 16.7024 7.69727C16.2678 7.6828 15.8331 7.71174 15.3985 7.75515ZM15.3985 7.75515V9.78075H15.384C12.8776 9.47691 10.9072 11.8208 10.9072 11.8208C10.9072 11.8208 12.0228 15.7707 15.3985 16.9137V18.7657C9.40046 17.695 7.73434 11.4591 7.73434 11.4591C7.73434 11.4591 10.6174 8.27602 15.3985 7.75515ZM15.413 5.41034L15.3985 5.41124L15.3985 5.41124V5.41237C8.29456 5.96816 4.74982 11.1987 4.74982 11.1987C4.74982 11.1987 7.45907 19.9377 15.3985 20.9215V22.9471C4.57597 21.9343 0.722168 10.7935 0.722168 10.7935C0.722168 10.7935 7.53151 4.13801 15.413 3.50139V5.41034ZM47.1513 5V21.9856H52.0483V8.79695L55.8669 8.81134C57.1203 8.81134 57.9947 9.11337 58.5923 9.74619C59.3648 10.5516 59.6708 11.8604 59.6708 14.2335V21.9856H64.4221V12.6083C64.4221 5.90609 60.0935 5 55.8669 5H47.1513ZM85.3366 5.02876V22H90.1899V5.02876H85.3366ZM93.1632 22V5.02876H99.9695C103.846 5.02876 106.441 5.489 108.219 7.8621C109.224 9.18528 109.793 11.3139 109.793 13.7014C109.793 16.3046 109.122 18.692 108.073 19.7707C106.601 21.3096 105.231 22 101.033 22H93.1632ZM97.9728 8.71066H100.057C103.088 8.71066 105.041 10.0482 105.041 13.5288C105.041 17.0093 103.088 18.3613 100.057 18.3613H97.9728V8.71066ZM74.2891 18.4763L78.3408 5.02876H83.2962L77.6996 22H70.7038L65.1654 5.02876H70.4123L74.2891 18.4763ZM112.066 22H116.92V5.02876H112.066V22ZM118.902 21.9856L125.679 5.02876H132.165L139 21.9712H133.797L132.777 18.9797H124.761L123.682 21.9856H118.902ZM128.827 8.12098L131.771 16.0601H125.796L128.827 8.12098Z" fill="#36536B"/>
</svg>
